<svg xmlns="http://www.w3.org/2000/svg" xmlns:xlink="http://www.w3.org/1999/xlink"><symbol id="icon-ok" viewBox="0 0 14 22"><g fill="currentColor"><path d="M7 3.32798C8.32292 3.32798 9.39879 4.38262 9.39879 5.67944C9.39879 6.97235 8.32292 8.02699 7 8.02699C5.67708 8.02699 4.60121 6.97235 4.60121 5.67944C4.60121 4.38262 5.67708 3.32798 7 3.32798ZM7 11.355C10.1957 11.355 12.7938 8.8082 12.7938 5.67944C12.7938 2.54676 10.1957 0 7 0C3.80427 0 1.21023 2.54676 1.21023 5.67944C1.21023 8.8082 3.80427 11.355 7 11.355ZM9.343 15.9876C10.5225 15.722 11.6581 15.2649 12.7061 14.6204C13.499 14.1322 13.7381 13.1049 13.24 12.3276C12.738 11.5464 11.694 11.312 10.897 11.8042C8.52614 13.265 5.47386 13.265 3.09898 11.8042C2.30603 11.312 1.25805 11.5464 0.759964 12.3276C0.261876 13.1049 0.500958 14.1322 1.29391 14.6204C2.34189 15.2649 3.47753 15.722 4.657 15.9876L1.41744 19.1593C0.755978 19.8077 0.755978 20.8624 1.41744 21.5108C1.75215 21.835 2.1825 21.999 2.61683 21.999C3.05116 21.999 3.4855 21.835 3.82021 21.5108L7 18.3937L10.1838 21.5108C10.8452 22.1631 11.9171 22.1631 12.5826 21.5108C13.244 20.8624 13.244 19.8077 12.5826 19.1593L9.343 15.9876Z" fill="#030A1A"/></g></symbol><symbol id="icon-play" viewBox="0 0 13 15"><g fill="none"><path d="M13 7.5L0.249999 14.8612L0.25 0.138783L13 7.5Z" fill="white"/></g></symbol><symbol id="icon-reddit" viewBox="0 0 20 22"><g fill="none"><path d="M11.9453 0.5C11.304 0.5 10.7021 0.84161 10.3161 1.33425C9.93009 1.82688 9.71732 2.4274 9.56231 3.06027C9.31611 4.07791 9.24012 5.20702 9.22188 6.22466C7.41944 6.35051 5.78722 6.91147 4.43159 7.77808C3.88143 7.29264 3.21882 7.02295 2.58356 7.03014C1.86015 7.03733 1.17322 7.36455 0.662576 8.03699C-0.313112 9.32072 -0.200649 11.4207 0.930054 12.6685C0.860145 13.0533 0.808473 13.4488 0.808473 13.8479C0.808473 18.0767 4.92399 21.5 10 21.5C15.076 21.5 19.1915 18.0731 19.1915 13.8479C19.1915 13.4488 19.1399 13.0533 19.0699 12.6685C20.2006 11.4207 20.3131 9.32072 19.3374 8.03699C18.8268 7.36455 18.1399 7.03733 17.4164 7.03014C16.7812 7.02295 16.1186 7.29264 15.5684 7.77808C14.2189 6.91507 12.5958 6.35411 10.8024 6.22466C10.8268 5.28613 10.8906 4.31164 11.0699 3.57808C11.1824 3.11781 11.3161 2.78339 11.459 2.6C11.6018 2.41661 11.7052 2.3411 11.9453 2.3411C12.4651 2.3411 12.5319 2.51729 12.845 2.94521C13.0031 3.16096 13.1854 3.43065 13.4772 3.69315C13.769 3.95565 14.2006 4.18219 14.6687 4.18219V2.3411C14.538 2.3411 14.5137 2.3375 14.4256 2.25479C14.3374 2.17209 14.2158 1.98151 14.0365 1.73699C13.6778 1.24435 12.9818 0.5 11.9453 0.5ZM17.0031 0.672603C15.7933 0.672603 14.8146 1.83048 14.8146 3.26164C14.8146 4.69281 15.7933 5.85069 17.0031 5.85069C18.2128 5.85069 19.1915 4.69281 19.1915 3.26164C19.1915 1.83048 18.2128 0.672603 17.0031 0.672603ZM17.0031 1.59315C17.7812 1.59315 18.4134 2.3411 18.4134 3.26164C18.4134 4.18219 17.7812 4.93014 17.0031 4.93014C16.225 4.93014 15.5927 4.18219 15.5927 3.26164C15.5927 2.3411 16.225 1.59315 17.0031 1.59315ZM10 7.66301C14.307 7.66301 17.9514 10.5002 17.9514 13.8479C17.9514 17.1993 14.307 20.0329 10 20.0329C5.69299 20.0329 2.0486 17.1993 2.0486 13.8479C2.0486 10.5002 5.69299 7.66301 10 7.66301ZM2.60787 8.49726C2.82368 8.50086 3.0486 8.55839 3.26441 8.66986C2.48325 9.37106 1.86319 10.1765 1.44069 11.0863C1.1489 10.3743 1.22793 9.48613 1.58659 9.01507C1.84799 8.66986 2.20969 8.49366 2.60787 8.49726ZM17.3921 8.49726C17.7903 8.49366 18.152 8.66986 18.4134 9.01507C18.7721 9.48613 18.8511 10.3743 18.5593 11.0863C18.1368 10.1765 17.5167 9.37106 16.7356 8.66986C16.9514 8.55839 17.1763 8.50086 17.3921 8.49726ZM6.88753 10.7986C6.10941 10.7986 5.47719 11.5466 5.47719 12.4671C5.47719 13.3877 6.10941 14.1356 6.88753 14.1356C7.66564 14.1356 8.29786 13.3877 8.29786 12.4671C8.29786 11.5466 7.66564 10.7986 6.88753 10.7986ZM13.1125 10.7986C12.3344 10.7986 11.7021 11.5466 11.7021 12.4671C11.7021 13.3877 12.3344 14.1356 13.1125 14.1356C13.8906 14.1356 14.5228 13.3877 14.5228 12.4671C14.5228 11.5466 13.8906 10.7986 13.1125 10.7986ZM6.13372 16.4658C6.62917 17.6776 8.16109 18.8534 10 18.8534C11.8389 18.8534 13.3952 17.6776 13.8906 16.4658C12.9909 17.1526 11.5714 17.6164 10 17.6164C8.42857 17.6164 7.03342 17.1526 6.13372 16.4658Z" fill="#030A1A"/></g></symbol><symbol id="icon-vk" viewBox="0 0 22 12"><g fill="none"><path d="M21.8039 10.7032C21.7448 10.6086 21.379 9.84878 19.6189 8.28709C17.7762 6.65178 18.0238 6.91732 20.2432 4.0897C21.5949 2.36763 22.1353 1.31598 21.9662 0.866405C21.8053 0.437859 20.8111 0.550911 20.8111 0.550911L17.5053 0.569315C17.5053 0.569315 17.2606 0.537766 17.0777 0.641616C16.9003 0.744151 16.7862 0.980772 16.7862 0.980772C16.7862 0.980772 16.2623 2.31373 15.5637 3.44688C14.091 5.83806 13.501 5.96426 13.2604 5.81572C12.7007 5.46999 12.841 4.42491 12.841 3.6835C12.841 1.36594 13.2082 0.399737 12.1246 0.149971C11.7643 0.0671538 11.5003 0.0119424 10.5803 0.00274048C9.4005 -0.00909055 8.4008 0.00668415 7.83563 0.27091C7.45885 0.447061 7.16871 0.840114 7.3461 0.862462C7.56474 0.890068 8.05977 0.989974 8.32242 1.33176C8.66207 1.77214 8.64969 2.76331 8.64969 2.76331C8.64969 2.76331 8.84496 5.49102 8.19453 5.83018C7.74763 6.06285 7.13571 5.5883 5.82248 3.41796C5.15006 2.30716 4.64127 1.07805 4.64127 1.07805C4.64127 1.07805 4.54364 0.849316 4.369 0.727062C4.15724 0.578517 3.86022 0.531193 3.86022 0.531193L0.716735 0.549597C0.716735 0.549597 0.245075 0.562743 0.0718122 0.758612C-0.0821991 0.933448 0.0594363 1.29364 0.0594363 1.29364C0.0594363 1.29364 2.52087 6.79769 5.30682 9.57272C7.86313 12.1164 10.7646 11.9494 10.7646 11.9494H12.0792C12.0792 11.9494 12.4766 11.9074 12.6787 11.6984C12.8658 11.5064 12.8589 11.1463 12.8589 11.1463C12.8589 11.1463 12.8327 9.45967 13.6523 9.21122C14.4595 8.96671 15.4963 10.8413 16.595 11.563C17.4256 12.1085 18.0568 11.9889 18.0568 11.9889L20.9953 11.9494C20.9953 11.9494 22.5327 11.8587 21.8039 10.7032Z" fill="#030A1A"/></g></symbol><symbol id="jury-arrow" viewBox="0 0 18 34"><g fill="none"><path d="M17 1L0.999999 17L17 33" stroke="currentColor"/></g></symbol><symbol id="reviews-arrow" viewBox="0 0 12 21"><g fill="none"><path d="M11 20L1 10.5L11 1" stroke="currentColor"/></g></symbol></svg>